<?xml version="1.0" encoding="utf-8"?>
<!-- Generator: Adobe Illustrator 16.0.0, SVG Export Plug-In . SVG Version: 6.00 Build 0)  -->
<!DOCTYPE svg PUBLIC "-//W3C//DTD SVG 1.1//EN" "http://www.w3.org/Graphics/SVG/1.1/DTD/svg11.dtd">
<svg version="1.1" id="Layer_1" xmlns="http://www.w3.org/2000/svg" xmlns:xlink="http://www.w3.org/1999/xlink" x="0px" y="0px"
	 width="24px" height="24px" viewBox="0 0 24 24" enable-background="new 0 0 24 24" xml:space="preserve">
<path fill="none" d="M0,0h24v24H0V0z"/>
<path fill="#F0B137" d="M17.21,9l-4.38-6.56C12.641,2.16,12.32,2.02,12,2.02s-0.64,0.14-0.83,0.43L6.79,9H2c-0.55,0-1,0.45-1,1
	c0,0.09,0.01,0.18,0.04,0.27l2.54,9.27C3.81,20.38,4.58,21,5.5,21h13c0.92,0,1.689-0.62,1.93-1.46l2.541-9.27L23,10
	c0-0.55-0.45-1-1-1H17.21z M9,9l3-4.4L15,9H9z M12,17c-1.1,0-2-0.9-2-2s0.9-2,2-2c1.1,0,2,0.9,2,2S13.1,17,12,17z"/>
</svg>
