<?xml version="1.0" encoding="utf-8"?>
<!-- Generator: Adobe Illustrator 16.0.0, SVG Export Plug-In . SVG Version: 6.00 Build 0)  -->
<!DOCTYPE svg PUBLIC "-//W3C//DTD SVG 1.1//EN" "http://www.w3.org/Graphics/SVG/1.1/DTD/svg11.dtd">
<svg version="1.1" id="Camada_1" xmlns="http://www.w3.org/2000/svg" xmlns:xlink="http://www.w3.org/1999/xlink" x="0px" y="0px"
	 width="462.1px" height="320.1px" viewBox="0 0 462.1 320.1" style="enable-background:new 0 0 462.1 320.1;" xml:space="preserve"
	>
<style type="text/css">
<![CDATA[
	.st0{fill:none;stroke:#E0B044;stroke-width:15.3679;stroke-miterlimit:10;}
	.st1{clip-path:url(#SVGID_2_);fill:none;stroke:#526379;stroke-width:15.3679;stroke-miterlimit:10;}
	.st2{fill:#E0B044;}
	.st3{clip-path:url(#SVGID_6_);fill:none;stroke:#8DA6BB;stroke-width:15.3679;stroke-miterlimit:10;}
	.st4{fill:none;stroke:#8DA6BB;stroke-width:15.3679;stroke-miterlimit:10;}
	.st5{clip-path:url(#SVGID_4_);fill:none;stroke:#526379;stroke-width:15.3679;stroke-miterlimit:10;}
]]>
</style>
<g>
	<g>
		<defs>
			<polygon id="SVGID_1_" points="151,-37 151,206.7 38.6,185.2 -39,185.2 -39,320.1 237.6,320.1 328.4,229.4 328.4,81.1 			"/>
		</defs>
		<clipPath id="SVGID_2_">
			<use xlink:href="#SVGID_1_"  style="overflow:visible;"/>
		</clipPath>
		<path class="st1" d="M270.8,152.7L149.2,31.1c-2.4-2.4-5.5-3.6-8.6-3.7v76.8v71.3h-126l116.7,116.7c4.9,4.9,13,4.9,17.9,0
			l121.6-121.6C275.8,165.7,275.8,157.7,270.8,152.7z"/>
	</g>
	<path class="st4" d="M319.7,170.6c-4.9-4.9-4.9-13,0-17.9l54.1-54.1l-67.5-67.5c-4.9-4.9-13-4.9-17.9,0L166.8,152.7
		c-4.9,4.9-4.9,13,0,17.9l121.6,121.6c4.9,4.9,13,4.9,17.9,0l67.5-67.5L319.7,170.6z"/>
	<path class="st0" d="M229,292.3c-4.9,4.9-13,4.9-17.9,0L89.5,170.6c-4.9-4.9-4.9-13,0-17.9L211.1,31.1c4.9-4.9,13-4.9,17.9,0
		l121.6,121.6c4.9,4.9,4.9,13,0,17.9L229,292.3z"/>
	<g>
		<defs>
			<polyline id="SVGID_3_" points="220.1,256.6 191.7,303.6 237.6,320.1 328.4,229.4 328.4,81.1 151,-37 151,206.7 			"/>
		</defs>
		<clipPath id="SVGID_4_">
			<use xlink:href="#SVGID_3_"  style="overflow:visible;"/>
		</clipPath>
		<path class="st5" d="M270.8,152.7L149.2,31.1c-2.4-2.4-5.5-3.6-8.6-3.7v76.8v71.3h-126l116.7,116.7c4.9,4.9,13,4.9,17.9,0
			l121.6-121.6C275.8,165.7,275.8,157.7,270.8,152.7z"/>
	</g>
	<circle class="st2" cx="410" cy="160.1" r="35.1"/>
	<g>
		<defs>
			<polygon id="SVGID_5_" points="296.1,330 462.1,362.2 462.1,-23.4 296.1,-43.1 			"/>
		</defs>
		<clipPath id="SVGID_6_">
			<use xlink:href="#SVGID_5_"  style="overflow:visible;"/>
		</clipPath>
		<path class="st3" d="M318.5,170.6c-4.9-4.9-4.9-13,0-17.9l54.1-54.1l-67.5-67.5c-4.9-4.9-13-4.9-17.9,0L165.6,152.7
			c-4.9,4.9-4.9,13,0,17.9l121.6,121.6c4.9,4.9,13,4.9,17.9,0l67.5-67.5L318.5,170.6z"/>
	</g>
</g>
</svg>
